<svg xmlns="http://www.w3.org/2000/svg" style="display: none">
  <symbol viewBox="0 0 18 18" id="search">
    <path d="M17.7 16l-3.5-3.4A7.8 7.8 0 008 0 7.8 7.8 0 000 7.9c0 4.4 3.5 7.8 7.9 7.8 1.7 0 3.3-.6 4.7-1.5l3.5 3.5c.2.2.4.3.8.3.6 0 1.1-.5 1.1-1.1l-.3-.8zM2.3 8c0-3 2.5-5.7 5.6-5.7 3 0 5.6 2.6 5.6 5.7 0 3-2.6 5.6-5.6 5.6-3 0-5.7-2.6-5.7-5.6z"/>
  </symbol>
  <symbol viewBox="0 0 21 18" id="cart">
    <path d="M20.2 6.9h-3.6L13.2.4c-.2-.4-.6-.5-1-.3s-.5.6-.3 1L15 6.8H5.8L8.9 1c.2-.3 0-.7-.3-.9a.8.8 0 00-1 .3L4.2 6.9H.8c-.4 0-.8.2-.8.7 0 .4.3.8.8.8H1l1 2.8c-.3.1-.4.3-.4.6 0 .4.3.7.7.7L4.1 18h12.8l1.8-5.5c.4 0 .7-.3.7-.7 0-.2-.1-.5-.3-.6l.9-2.8h.2c.4 0 .8-.3.8-.8s-.4-.7-.8-.7zm-4.6 9.6H5.1l-1.2-4.1h13l-1.3 4zm1.6-5.5H3.3l-.8-2.7h15.6l-.9 2.7z"/>
  </symbol>
  <symbol viewBox="0 0 102 34" id="logo-footer">
    <path d="M19.2 21.4c0-2.7-.5-5.3-.5-8 0-2.2.4-4.4-.4-6.4l.1-.7c.2-1-3.3-.5-3.8.5-.3.3-.5.6-.4 1l.1.3c-.7 3.1-1.6 6.2-2.6 9.3l-1.3 3.5c-.6-1.1-1.2-2.2-1.6-3.4-1.4-3.4-2.6-6.9-4.3-10.1.2-1.5-3.2-1.4-3.9 0a8.3 8.3 0 00-.4 5.1c.3 2 .4 4 .4 6.1 0 4 .4 7.9.4 11.8-.4.4-.5 1 0 1.4l.5.5c1 .7 3.6.1 3.6-1.3 0-4-.3-8.1-.4-12.3v-1.2l.2.4c.6 1.6 1.3 3.2 2.2 4.7 1 1.5 1.3 3 1.8 4.6-.2.2-.3.5-.2.7 0 .2.1.3.3.4.6.5 1.8.3 2.5 0 .3 0 .6-.3.8-.4.3-.2 1-.7.7-1.1v-.3l1-4c.2-1.3.7-2.7 1.2-4l.2 1.9c.2 2.6 0 5 0 7.5l.2 2.5c.1.3.4 1.8.3 2-.8.4-.6 1 .2 1.2 1 .2 2.1 0 2.8-.7 1.2-1 .6-2.8.4-4.2-.5-2.3 0-5 0-7.3zm8.4.6c0-2-.8-3.8-.8-5.8 0-2.3.2-4.6-.2-6.9 0-.6-4 .1-3.9 1 .3 2.1.2 4.2.2 6.4 0 2 .5 3.9.7 5.9.3 2 0 4.2.1 6.1.1 1 .8 2.7.1 3.6-.4.5 1.5.3 1.6.3.8 0 1.8-.4 2.3-1 .7-.8.2-2.4.1-3.4-.3-2 0-4.1-.2-6.1zM44 18.8c-2.2-2.8-6-.8-8.7-1.5C34 16.9 34 15 34 13.9a28 28 0 00-.3-4c0-1.1 0-2.1.7-3l.8-.2 1.1-.1c1.5-.1 4.6.2 4 2.4-.3 1 3.6.4 4-.5 1.1-4.6-7.4-3.7-9.8-3.1-2.2.6-4.6 1.8-4.8 4.3l.3 3.6c.1 1.4-.2 2.8.3 4.1 1.1 3 5.5 1.6 7.8 1.7 3.8.3 2.7 5.5 2.7 7.9 0 1.2 1.2 3.3.2 4.4-.6.7-2 .7-2.8.8-.8.1-2.2.3-2.7-.5-1-1.4.1-3.8 0-5.3-.2-1-4.2-.1-4 1 .3 2.5-1.4 6 2.4 6.5 2.4.3 5.2-.2 7.5-.9 1.2-.4 2.3-.9 3.2-1.8 1-.9.7-2.3.4-3.5-.5-3 1-6.4-1-8.9zm17.3-.2c0-3.8-.7-7.5-.7-11.2 0-2-4-1.3-4 .3 0 3.5.5 7.1.7 10.7v.2l-5.9.2c.2-4.6-.6-9.2-.4-13.8 0-.6-3.9-.1-3.9 1-.2 4.4.6 8.8.5 13.3l-.3 6.4.3 3.2c.1 1 .5 2.3.2 3.3-.2.8 3.6.3 4-.7.4-1.8-.3-4-.5-5.7-.2-1.7 0-3.5.1-5.2 2-.1 4.1-.3 6.1 0l.3 4 .2 3.5c0 1 .1 2.5-.2 3.5-.8 2.1 3.1 2 3.7.4.7-1.9.5-4.2.4-6.1-.2-2.5-.6-5-.6-7.3zM78.2 23c-.9-2.8-2.4-5.2-3.6-7.8l3-5.9c.7-1.7 1.3-3.7 3-5 .6-.4.6-1-.3-1-.9-.1-2 .2-2.8.7a12.1 12.1 0 00-3 4.4l-3 6c0 .1 0 .3-.2.4-.5.3-.8.8-.6 1.3l-2.5 4.6c-.3-5.5-1-11-1.2-16.5 0-1.3-4-.5-3.9 1 .2 6.8 1.2 13.6 1.3 20.5-.3.4-.2.6.1.7 0 1.7 0 3.4-.2 5.2-.5.7.5 1.1 1.1 1.1h.1c.7 0 2.6-.3 2.7-1.4.2-2 .3-4.2.2-6.2a32 32 0 004.1-5.6c.8 1.5 1.5 3 2 4.6 1 2.7 2.3 5.2 3.1 8 .5 1.7 4.5.6 4-1-1-2.9-2.5-5.3-3.4-8.1zm23.5-4.6c-.2-.8-1.4-.8-2.3-.8v-1c0-2.7-.2-5.4-.4-8-.2-2.4-1.6-3.2-4-3.1-2.4 0-5.2.5-7.5 1.4a7 7 0 00-4.6 5.6c-.5 3 .2 6.2.4 9.2.2 3.5.1 7 .1 10.4 0 .6 4 0 4-1V23l-.2-2.4c1.4-.6 3.7 0 5.1 0 1.1.2 2.2-.1 3.2-.2l.2 6.8c0 1.2.5 3.5-.4 4.5-.4.5 1.5.3 1.6.3.8 0 1.8-.4 2.3-1 1-1 .5-3.8.4-5v-5.7c1-.2 2.3-1 2.1-1.8zm-14.6-.1l-.3-3.7c-.2-2.3.1-5.5 2.3-7 .6-.3 1.7-.2 2.4-.3 1-.2 2-.4 2.8.2 1.2.8 1 3.6 1 4.8l.2 6-1.7.1c-2.3-.2-4.6-.6-6.7-.1zM24.2 6.7c.5-.1 1-.2 1.5-.5L26 6c.5-.3 1-.8.7-1.4-.5-1.1-.4-2.2-.4-3.4 0-1-1-1.2-1.8-1.2-.7.1-2.2.6-2.2 1.5l.1 3v.4c-.2.2 0 .4 0 .6V6l.4.5a3 3 0 001.5.3z"/>
  </symbol>
  <symbol viewBox="0 0 22 21" id="insta">
    <path d="M22 12.6c0-2.4-.3-4.8-.3-7l-.2-2.3-.2-1.1c-.3-.2-.2-.6-.5-.8-.4-.2-1.2-.1-1.7-.2L17 1l-6-.1c-2 0-4-.1-5.7-.4H3.2L3 .6c-.6 0-1.1.2-1.6.3l-.7.3c-.1.2-.5 0-.6.4-.2.2.2.5 0 .6V3c.2 0 0 .6 0 .8v1l.2 3.6c.5 2.8.4 6.5 0 9.3.3.6.5 1.1.6 1.7.3.5.3 1.1.7 1.5.5.2 1.2.2 1.9.2l1 .3c3-.2 5.6-.2 8.5-.2 2.8.2 5.9.2 8.4-.2.2-.1.1-.5.2-.8-.1-.4.2-.4.2-.8.2-2 .2-4.4.2-7zM9 6.4c.7-.2 1.4-.3 2.3-.3l2 .5c0 .2-.3.5.1.7l.2.1c.4 0 .9.2 1.2.4.5.1.5.5 1 .4V9c.3 1.2.5 2.8.3 4.3-.2.2-.2.4-.3.7-.3.3-.5.8-.8 1-.1.3-.3.5-.5.6-.1.2-.3.5-.6.5-.3.1-.6 0-.8-.1l-1.2.5-2.4-.3-.8-.2-.8-.5-.5-.2c-.2 0-.2-.2-.5-.2-.1-.4-.4-.6-.5-1.1l-.5-1.2c0-1.4.1-2.7.4-3.8.3-.6.8-1 1.1-1.7.2 0 .4 0 .4-.3h.7c.2 0 .2-.4.4-.6zM7.1 3.8l-.1-1.1c0-.3.3-.3.3-.5L7.2 2c.1-.1.7-.1.8 0 .1.5-.4.5-.5.7 0 .2.3 0 .5 0v2.3h-.5c0 .2.2.2.5.2l.1.5C8 6 7.4 5.8 7 6c0-.5.3-1.3.2-2.1zm-.7-1.6h.2c.2.4 0 .8-.1 1-.2-.2 0-.7-.1-1zM6.7 4c-.1-.1-.2-.2-.2-.5.2 0 .2.3.2.5zm0 1.4l-.1-.2c.1-.1.1 0 .1.2zm-.2.2c.2 0 .1.2.2.2 0 .1-.3.1-.4 0l.2-.2zM4.2 4.4L4 4.2v-2c.3-.2.8 0 1-.1v1c0 .2-.1.2-.3.2-.1.3.3 0 .4.3 0 .9-.1 1.8.2 2.3L4 6c0-.5 0-1.3.5-1.5l-.3-.1zm-.5 0c-.2 0-.2-.5-.1-.6.3 0 .2.5 0 .6zm-.2 1v-.7c.3 0 .3.8 0 .7zm.2-2.1c-.3 0-.3-.3-.2-.4.3 0 .4.3.2.4zm0-1.1l-.1.3c-.2 0-.1-.2-.2-.2l.3-.1zm-.2 3.6s0 .3-.1.2v-.2zm-.7-3.6c0 .3-.4.3-.4 0h.4zm-1 0c0 .3-.3.3-.4.5-.2-.2 0-.5.4-.4zm-.4.8l.7-.6v-.2h.3c0 .4-.3.3-.3.5l-.1.2v1c-.2 0-.2.3-.5.2 0-.4-.2-.6-.1-1.1zm0 3.2V4.7l.7-.5c.3.5.2 1.4.5 1.8l-1.1.2zm18.4 11l-.4 2.8c-3 .1-6 0-9 .2-.2 0-.3 0-.2-.2-.3 0-.3.2-.5.2.2-.3.4-.9.2-1.3-.8 0-.8.8-1 1.3l-1.9.1c.2-.7.7-1 1-1.7-.5-.5-1.1.1-1.3.5l-.8 1.3h-1l.8-1.4c.2-.5.6-.7.7-1.4-.2-.3-.4 0-.7 0l-.4.5-.7 1.1c-.2.2-.3 0-.5.2l-1 1c-.2 0 0-.4.2-.4v-.6l.5-.9c0-.7.5-1.2.7-1.9-.6.1-.7.6-1 1L2.8 19c-.2 0 0-.6-.1-.8 0-.6.3-1 .4-1.7l.2-.7c.2-.2 0-.6-.1-.8-.2 0-.4 0-.5.3-.2 0-.2.5-.3.3 0-2.6-.5-4.8-.5-7.4l-.2-.7 4.8.2-.3.4-.4.3c-.6 1.7-1 4-.6 6.2.2.6.6 1 1 1.4.9.4 1.6 1 2.5 1.6 1.7.4 3.8.4 5.5 0 .3 0 .6-.2.8-.4 1.4-1.1 2.8-2.4 3-4.8v-1.4c-.2-1.6-.7-2.9-1.7-3.6.3-.2 1 0 1.7.1H20c0 .2 0 .5.2.8l-.2 5c0 .6 0 1 .2 1.5l-.5 2.5zm.4-11l-2-.5c.2-.2.9 0 1-.1.5-.2.4-1 .4-1.5V3c-.3-1-1.7-.4-2.8-.5-.2.7-.5 1.8-.3 2.7.2.5 1 .3 1.5.5-.1.2-.7 0-1 0l-1-.1c-2.4 0-4.4 0-6.6.2a14 14 0 000-3.6h3c-.3.4-.9.5-1.3.8-.4.2-.9.5-1 .9l.7-.4c.4-.1.5-.4.8-.5.4-.4 1.1-.6 1.7-1 .4 0 .7 0 1 .2h3.9l2 .4.3.9-.3 2.6zm-6-3.7c.2-.1 0-.1 0 0zm0 0c-.5.2-1 .3-1.4.7.5-.2 1.1-.3 1.4-.7zm1.2.6c0-.1 0-.1 0 0zm-1.9.9c.7-.2 1.3-.6 1.8-1-.4 0-.6.4-1 .5-.2.2-.6.2-.8.5zm-.7-.8s.1 0 0 0zm-.6.6c.1-.1 0-.1 0 0zm0 0zm-.2 0c.1 0 .1 0 0 0zm-.8.7c.3-.1.6-.3.8-.6l-.8.6zm2.3 1c.5 0 .7-.4 1.3-.5.3-.3.8-.4 1-.8-.6 0-.8.4-1.2.5-.4.4-.9.5-1 .8zm-2.3-1c-.3 0 0 .3 0 0zm-.6.4c.1 0 .2 0 0 0 .1-.1 0 0 0 0zm3 .6c-.3 0 0 0 0 0zm-1.3 1.7c-.2-.2-.7-.2-1-.4L9.6 7l-.9.5c-.3.2-.4.4-.8.5-.2.2-.4.5-.7.6 0 .2-.2.3-.3.4l-.2.4-.1.3c.1 1.5.3 2.9.7 4.2.3.6 1 .8 1.4 1.3.6.3 1.3.4 2.1.5l1-.1a5 5 0 002.8-1.4c0-.3.3-.5.5-.7-.3-.7.3-1.1.5-1.6 0-1.3-.2-2.5-.6-3.4-.3-.6-1-.8-1.5-1 0 0-.2 0-.2-.2-.2 0-.7-.2-1 0zM9 11.6l-.2-.4c.3-.1.2.2.2.4zm.1.3c0-.1.1 0 0 0 0 .2 0 0 0 0zm.4-2c0-.2.1 0 0 0 .1 0 0 0 0 0zm1.7-2.2c-.2.3 0 .6.1.8-.3 0-.6-.8 0-.8zm.4 3.9c.1 0 0 0 0 0zm.7 2.9c0-.1.1 0 .2 0h-.2zm2.3-2.5c-.3-.1-.1.2-.5.2l.2-.5c.3 0 .4 0 .3.3zm-1.2-3.8l.6.4c.1.2.2.4.5.5l.2 2.4c-.4 0-.5.3-.8.4-.8 0-1.4-.2-1.9-.5l-.5-.8v-1l.5-.7c.2 0 .5-.2.5-.6v-.2c.1 0 .1.2.3.2.2 0 .3-.2.6 0z"/>
  </symbol>
  <symbol viewBox="0 0 15 28" id="fb">
    <path d="M11.7035 5.25484C12.7024 5.25484 13.7014 5.25484 14.4006 4.95313C14.8002 4.14856 15 3.04228 15 1.936C14.8002 1.936 14.9001 1.63428 14.8002 1.53371C14.8002 1.33257 14.5005 1.33257 14.5005 1.13142C14.2009 0.930282 14.0011 0.729141 13.8013 0.527999C13.102 0.326857 12.4028 0.226286 11.6036 0.0251435C10.8045 0.0251435 9.70565 -0.0754291 9.00639 0.125713C6.40916 0.125713 5.01066 1.232 3.71204 2.53942C3.71204 2.63999 3.71204 2.74056 3.61215 2.74056C3.01278 4.3497 3.51225 6.36112 3.41236 8.37254C3.51225 8.77483 3.51225 9.37826 3.61215 9.78054C2.61321 10.0823 1.41449 10.1828 0.21577 10.2834C-0.08391 10.5851 0.0159827 11.3897 0.0159827 11.9931C0.115876 12.5965 0.315665 13.0994 0.415558 13.6022C0.615345 13.8034 1.01492 14.0045 1.2147 14.1051C1.3146 14.1051 1.3146 14.2057 1.3146 14.2057C1.81406 14.5074 2.813 14.2057 3.61215 14.3062C3.51225 16.3177 3.91183 18.2285 3.61215 20.0388C3.61215 20.3405 3.91183 20.4411 3.81193 20.8434C3.81193 21.8491 3.71204 22.8548 4.01172 23.5588C3.71204 24.0616 3.51225 24.5645 3.61215 25.3691C3.71204 25.3691 3.71204 25.5702 3.71204 25.6708C3.61215 26.1736 4.3114 25.8719 4.21151 26.3748C4.4113 26.8776 3.81193 26.5759 3.81193 26.8776V27.7828C4.3114 28.0845 5.31033 27.9839 6.10948 27.9839C7.00852 27.5816 8.30714 27.4811 8.9065 26.7771C9.40597 26.9782 9.80554 26.7771 10.1052 26.5759C10.1052 26.2742 10.4049 26.2742 10.305 25.8719C10.305 25.5702 10.1052 25.3691 10.2051 24.9668V22.0502C10.0053 19.7371 10.2051 17.1222 9.90544 14.8091C10.8045 14.7085 11.8034 14.7085 12.5027 14.4068C12.9022 13.904 12.9022 13.2 13.0021 12.496C13.2019 12.2948 13.2019 11.8925 13.2019 11.4902C13.4017 11.2891 13.3018 10.7863 13.3018 10.384C13.2019 9.78054 13.102 9.07654 12.5027 8.97597C11.6036 8.77483 10.5048 9.5794 9.50586 9.27769C9.50586 8.1714 9.20618 6.96455 9.50586 5.85827C10.305 5.65712 11.0043 5.45598 11.7035 5.25484ZM7.90757 10.0823C8.00746 10.384 8.20725 10.5851 8.30714 10.7863C8.40704 10.7863 8.50693 10.7863 8.50693 10.8868C9.70565 10.9874 10.7046 10.7863 11.6036 10.5851C11.6036 11.5908 11.3039 12.2948 11.1042 13.0994C10.4049 13.0994 9.60575 13.4011 9.10629 13.3005C8.80661 13.5017 8.70671 13.8034 8.50693 14.0045C8.50693 14.4068 8.60682 14.5074 8.50693 14.8091C8.30714 14.9097 8.40704 15.4125 8.30714 15.6137V17.1222C8.40704 17.4239 8.20724 17.4239 8.20724 17.6251V21.1451C8.10735 21.4468 8.30714 21.4468 8.30714 21.6479V24.6651C8.40704 24.9668 8.20725 25.4696 8.40703 25.5702C8.30714 25.9725 8.00746 25.5702 7.60788 25.6708C7.10842 25.7713 6.70884 26.0731 6.10948 26.0731C6.20938 25.6708 6.40916 25.4696 6.40916 24.9668C6.40916 24.5645 6.00959 24.6651 5.9097 24.4639C6.10948 23.8605 6.50906 23.3576 6.60895 22.6536C6.80874 22.1508 7.30821 21.3462 6.90863 20.8434C6.40916 20.7428 6.40916 21.1451 6.10948 21.2456C6.10948 21.3462 6.10948 21.4468 6.00959 21.4468C6.00959 21.5474 6.00959 21.6479 5.9097 21.6479C5.9097 21.7485 5.70991 21.7485 5.9097 21.6479C5.9097 21.5474 5.9097 21.4468 6.00959 21.4468C6.00959 21.3462 6.00959 21.2456 6.10948 21.2456V20.9439C6.50906 20.3405 6.80874 19.7371 6.90863 18.9325C7.10842 18.6308 7.20831 18.2285 7.3082 17.9268C7.50799 17.6251 7.60789 17.0217 7.4081 16.7199C6.90863 16.7199 6.60895 17.0217 6.50906 17.4239C6.20938 17.2228 6.70884 17.0217 6.60895 16.7199C6.70884 16.5188 6.80874 16.1165 6.90863 15.9154C7.10842 15.5131 7.50799 14.6079 6.90863 14.3062C6.50906 14.3062 6.30927 14.5074 6.20938 14.8091C6.00959 15.0102 5.8098 15.2114 5.70991 15.5131C5.31034 15.4125 5.61002 14.8091 5.51012 14.4068C5.41023 13.904 5.61002 13.5017 5.51012 13.2C4.91076 12.3954 3.51225 13.0994 2.31353 12.8982C2.21364 12.5965 2.11375 11.8925 2.21364 11.6914C3.21257 11.5908 4.71098 11.8925 5.41023 11.4902C5.41023 11.3897 5.41023 11.2891 5.51012 11.2891C5.61002 10.5851 5.21044 10.2834 5.01066 9.88111C5.21044 9.07654 5.01065 7.86969 5.11055 6.86398C5.31033 6.76341 5.41023 6.46169 5.61001 6.26055C5.70991 5.25484 6.30927 4.75199 6.30927 3.74627C6.00959 3.74627 5.70991 3.6457 5.70991 3.94742C5.41023 3.84685 5.31034 4.45027 5.21044 4.14856C5.11055 3.6457 5.41023 3.54513 5.51012 3.14285C6.10948 2.74056 6.70885 2.33828 7.4081 1.936C9.10629 1.73485 12.0032 1.53371 13.5016 2.13714C13.6015 2.74056 13.2019 3.04227 13.3018 3.6457H11.8034C10.7046 3.84684 9.80554 4.3497 8.80661 4.65141C8.60682 4.75198 8.50693 4.95313 8.30714 5.0537C8.30714 5.45598 8.10735 5.65712 8.00746 6.05941C7.70778 7.4674 7.90757 8.67426 7.90757 10.0823Z"/>
  </symbol>
  <symbol viewBox="0 0 23 20" id="twitter">
    <path d="M23 4.2c-.2-.4-1-.3-1.4-.4h-1c0-.4.2-.6.4-1 .1-.4.3-.7.2-1.3l.3-.6c.1 0 .2-.5.1-.7-.1-.2-.3-.2-.6-.2l-.2.1-1.2 1.4h-.1l-.1.1-.4.2c-.3.2-.5.4-.9.5L16.3 2c-1.2.1-2.3.2-3 .7-.8.3-1.4 1-2 1.6 0 .3-.3.4-.4.7v.2l-.2.5s.2.4 0 .5c-.8-.1-1.4-.6-2-1-.7-.5-1.5-.7-2-1.2-.7-.3-1.3-.8-1.8-1.3l-.7-.9c-.4-.2-.2-.9-.7-.9-.3 0-.3.2-.4.4 0 .2-.4.2-.4.5v.1c-.2 1.1-.5 2-.5 3.4 0 .4.3.7.5 1-.3 0-.6.2-.8.5-.1 1 .4 1.6.7 2.3 0 .4.3.7.5 1 0 .2.2.3.3.4l.1.2c0 .1.3.2.1.2-.4.1-1 .1-1.2.4v1.1l.2.5L4.2 14l1.8.4c0 .3-.2.6-.5.8-.8.4-1.8.5-2.7.7l-1.5.2c-.3 0-.9 0-1 .2-.2 0-.2 0-.3.2 0 .4.1.7.4.9 0 .3.2.3.4.4l.4.4c.5.5 1.3.8 1.8 1 .8.3 1.6.5 2.5.6l2.7.2h1l1.8.1.5-.1c.5-.3 1.2-.4 1.5-.7.6-.2 1-.6 1.6-1 .9-.7 1.8-1.2 2.4-2.3.2-.2.4-.4.4-.7l.6-.8 1-1.4.8-1.6c0-.4.3-.5.3-.9.2-.2.2-.7.4-.9l.1-.6c0-1.3 0-2.4-.3-3.4.6-.2 1.2-.3 1.6-.7.8.4 1.3 0 1-.7zm-3.3 4c-.2 1-.6 1.5-1 2.1l-.1 1c-.2.2-.3.6-.4 1l-.5.8-1.2 1.6c-.3.7-.8 1-1.2 1.6l-1.4 1.3c-.5.2-.9.4-1.2.7l-.7.3c-.2 0-.5 0-.7.3-1 0-2.2.2-3.5 0l-3-.3c-.8-.2-1.4-.7-2.2-1 .2-.2.6-.2 1-.2 0-.2.4 0 .4-.1l.5-.1c.6-.2 1.2-.3 1.6-.6.3-.1.4-.4.7-.6l.2-.4c0-.3.2-.4.1-.9.1-.2.3-.3.3-.7 0 0 0-.3-.3-.4 0-.2-.4 0-.4-.2h-.6c-.1 0-.4 0-.4-.2-.8 0-1.3-.4-1.9-.7.4-.3 1-.4 1.3-.7.5 0 1 0 1-.7s-.7-.7-1.2-.8C4 9.6 3.7 8.6 3 7.8c.2-.2.6-.2.7-.4.5 0 .5-.3.7-.5 0-.5-.3-.6-.6-.8l-.7-.7.1-2.5.1.1.8 1.2c.5.4.9 1 1.6 1.2.4.4 1 .6 1.5 1l1.7.9c.6.2 1 .7 2 .6l.5-.3c.3-.5-.1-1.1 0-1.6.4-.7.9-1 1.4-1.6l.7-.5c.3 0 .7-.2 1-.4H17.5l.7.4c.8.7 1.3 1.8 1.4 3v1.4zm.2-5.6c0 .3-.1.7-.5.8l-.1-.2c0-.2.2-.2.3-.3l.3-.3s.1 0 0 0zm-5.3 3l.5.5c0 .2.3.3.6.4 0-.2.3 0 .4-.2.2 0 .2-.2.2-.3 0-.5 0-1-.3-1.4-.7-.5-1.7 0-1.4 1z"/>
  </symbol>
  <symbol viewBox="0 0 27 34" id="academy">
    <path d="M13.7 0h-.1L0 1.4V26l13.6 8L27 26V1.4L13.7 0zM25 12L13.6 5.4v-.1h-.2V5l-11.5 7V3l11.5-1.2L25.1 3v9zM13.4 6.9L25 13.5 20.5 16l-7.2-4.2v1.4l6 3.5-1 .4-5-3v1.5l3.9 2.2-.8.5-3-1.7V18l1.9 1.1-1.9 1.1L2 13.6l11.4-6.8zM2 15l11.4 6.7v1l-7.9-4.7v1.4l8 4.8v1.1l-8-4.7v1.4l8 4.8 8.2-4.9V17l3.4-2v10l-11.6 6.8L2 25v-9.8z" fill="#63D1BB"/>
  </symbol>
  <symbol viewBox="0 0 25 24" id="phone">
    <g><path d="M17.44 24h-1.1a17.63 17.63 0 01-11.2-5.73A18.8 18.8 0 010 6.72V5.33c.1-.89.5-1.48 1.1-2.07.61-.7 1.62-1.48 2.53-1.58.7 0 1.81.5 2.22 1.09.4.49.6 1.58.8 2.37.2.88.6 1.97.5 2.76-.2 1.19-1.8 1.68-2.21 2.57a16.4 16.4 0 007.56 8.2c.8-.5 1.61-1.88 2.82-1.88.4 0 1.01.2 1.41.3.5.1.91.3 1.31.49.71.3 2.02.6 2.42 1.19.4.59.7 1.58.6 2.17-.3 1.28-2.41 2.66-3.62 3.06zM12.6 1.48A10.8 10.8 0 0123.5 12.15H25C25 5.43 19.46 0 12.6 0v1.48z"/><path d="M12.6 9.19v1.58c.8 0 1.41.59 1.41 1.38h1.62a3 3 0 00-3.03-2.96zM12.6 6.12a6.11 6.11 0 016.15 6.03h1.61c0-4.15-3.42-7.5-7.66-7.5v1.47h-.1z"/></g>
  </symbol>
  <symbol viewBox="0 0 32 21" id="mail">
    <path d="M28 0H4C1.8 0 0 1.8 0 4v13c0 2.2 1.8 4 4 4h24c2.2 0 4-1.8 4-4V4c0-2.2-1.8-4-4-4zM2 5.3l7 5.3-7 5.3V5.3zM30 17a2 2 0 01-2 2H4a2 2 0 01-2-2l7.8-5.9 4.4 3.3a3 3 0 003.6 0l4.4-3.3L30 17zm0-1.2l-7-5.3 7-5.3v10.6zm-12.8-2.2c-.4.3-.8.4-1.2.4-.4 0-.9-.1-1.2-.4l-4.1-3.1-.8-.6L2 4c0-1.1.9-2 2-2h24a2 2 0 012 2l-12.8 9.6z"/>
  </symbol>
  <symbol viewBox="0 0 101 77" id="video-play">
    <path d="M97.0001 18.1C97.0001 18.1 96.1001 11.1 93.2001 7.99997C89.6001 3.99997 85.5001 3.89995 83.7001 3.69995C70.4001 2.69995 50.4001 2.69995 50.4001 2.69995H50.3001C50.3001 2.69995 30.3001 2.69995 17.0001 3.69995C15.1001 3.89995 11.1001 3.99997 7.50011 7.99997C4.70011 11.1 3.7001 18.1 3.7001 18.1C3.7001 18.1 2.80011 26.3 2.80011 34.5V42.2C2.80011 50.4 3.7001 58.6 3.7001 58.6C3.7001 58.6 4.60011 65.6 7.50011 68.7C11.1001 72.7 15.9001 72.6 18.0001 73C25.6001 73.8 50.4001 74 50.4001 74C50.4001 74 70.4001 74 83.7001 73C85.6001 72.8 89.6001 72.7 93.2001 68.7C96.0001 65.6 97.0001 58.6 97.0001 58.6C97.0001 58.6 97.9001 50.4 97.9001 42.2V34.5C97.9001 26.3 97.0001 18.1 97.0001 18.1Z" fill="#63D1BB"/>
    <path d="M50.3001 76.8C49.3001 76.8 25.3001 76.5 17.7001 75.8H17.6001H17.5001C17.2001 75.7 16.8001 75.7 16.4001 75.6C13.9001 75.3 9.2001 74.7 5.6001 70.6C2.2001 67 1.2001 59.8 1.1001 59C1.1001 58.7 0.100098 50.5 0.100098 42.3V34.6C0.100098 26.3 1.00011 18.2 1.00011 17.9V17.8C1.10011 17 2.20011 9.89998 5.50011 6.19998C9.50011 1.79998 14.0001 1.30001 16.2001 1.10001C16.4001 1.10001 16.6001 1.1 16.7001 1H16.8001C30.1001 0 50.1001 0 50.3001 0H50.4001C50.6001 0 70.6001 0 83.9001 1H84.0001C84.2001 1 84.3001 1.00001 84.5001 1.10001C86.7001 1.30001 91.2001 1.79998 95.2001 6.19998C98.6001 9.79998 99.6001 17 99.7001 17.8C99.7001 18.1 100.7 26.3 100.7 34.6V42.3C100.7 50.6 99.8001 58.7 99.7001 59V59.1C99.6001 59.9 98.5001 67.1 95.2001 70.7C91.2001 75.1 86.7001 75.6 84.5001 75.8C84.3001 75.8 84.1001 75.8 84.0001 75.9H83.9001C70.6001 76.8 50.5001 76.8 50.3001 76.8ZM18.4001 70.4C25.9001 71.1 49.6001 71.4 50.4001 71.4C51.1001 71.4 70.5001 71.4 83.4001 70.4C83.6001 70.4 83.8001 70.4 84.0001 70.3C85.8001 70.1 88.6001 69.8 91.2001 67C93.0001 65 94.1001 60.1 94.3001 58.4C94.4001 57.9 95.2001 50 95.2001 42.3V34.6C95.2001 26.8 94.3001 19 94.2001 18.5C93.9001 16.1 92.8001 11.7 91.1001 10C88.5001 7.1 85.7001 6.89998 83.9001 6.69998C83.7001 6.69998 83.5001 6.70001 83.3001 6.60001C70.2001 5.60001 50.5001 5.60001 50.3001 5.60001H50.2001C50.0001 5.60001 30.2001 5.60001 17.2001 6.60001C17.0001 6.60001 16.8001 6.59998 16.6001 6.69998C14.8001 6.89998 12.0001 7.2 9.40012 10C7.60012 12 6.50011 16.9 6.30011 18.6C6.20011 19.2 5.4001 27 5.4001 34.7V42.4C5.4001 50.1 6.30011 58 6.30011 58.5C6.60011 60.9 7.70012 65.3 9.40012 67C11.7001 69.6 14.7001 70 16.9001 70.3C17.5001 70.2 17.9001 70.3 18.4001 70.4Z" fill="white"/>
    <path d="M38.4004 20.5V56.2L68.2004 38.4L38.4004 20.5Z" fill="white"/>
  </symbol>
</svg>
